<svg width="110" height="44" viewBox="0 0 110 44" fill="none" xmlns="http://www.w3.org/2000/svg">
<path d="M62.2709 30.7278C61.6789 30.7278 61.1349 30.5838 60.6389 30.2958C60.1589 30.0078 59.7749 29.6158 59.4869 29.1198C59.1989 28.6238 59.0549 28.0798 59.0549 27.4878V26.3358H61.9349V27.3918C61.9349 27.5198 61.9749 27.6238 62.0549 27.7038C62.1349 27.7838 62.2389 27.8238 62.3669 27.8238H72.9749C73.1029 27.8238 73.2069 27.7838 73.2869 27.7038C73.3829 27.6238 73.4309 27.5198 73.4309 27.3918V23.9598C73.4309 23.8478 73.3829 23.7518 73.2869 23.6718C73.2069 23.5758 73.1029 23.5278 72.9749 23.5278H62.2709C61.6789 23.5278 61.1349 23.3838 60.6389 23.0958C60.1589 22.8078 59.7749 22.4238 59.4869 21.9438C59.1989 21.4478 59.0549 20.9038 59.0549 20.3118V16.6878C59.0549 16.0958 59.1989 15.5518 59.4869 15.0558C59.7749 14.5598 60.1589 14.1678 60.6389 13.8798C61.1349 13.5918 61.6789 13.4478 62.2709 13.4478H73.0949C73.6869 13.4478 74.2229 13.5918 74.7029 13.8798C75.1989 14.1678 75.5909 14.5598 75.8789 15.0558C76.1829 15.5518 76.3349 16.0958 76.3349 16.6878V17.8398H73.4309V16.7838C73.4309 16.6558 73.3829 16.5518 73.2869 16.4718C73.2069 16.3918 73.1029 16.3518 72.9749 16.3518H62.3669C62.2389 16.3518 62.1349 16.3918 62.0549 16.4718C61.9749 16.5518 61.9349 16.6558 61.9349 16.7838V20.2158C61.9349 20.3278 61.9749 20.4318 62.0549 20.5278C62.1349 20.6078 62.2389 20.6478 62.3669 20.6478H73.0949C73.6869 20.6478 74.2229 20.7918 74.7029 21.0798C75.1989 21.3678 75.5909 21.7598 75.8789 22.2558C76.1829 22.7358 76.3349 23.2718 76.3349 23.8638V27.4878C76.3349 28.0798 76.1829 28.6238 75.8789 29.1198C75.5909 29.6158 75.1989 30.0078 74.7029 30.2958C74.2229 30.5838 73.6869 30.7278 73.0949 30.7278H62.2709ZM78.8836 30.7278V12.2478H81.7396V22.3278H84.5476L89.6356 16.8078H92.8036V17.4798L87.0916 23.7678L92.8036 30.0558V30.7278H89.6356L84.5476 25.2078H81.7396V30.7278H78.8836ZM96.4872 35.9598V33.0798H104.959C105.071 33.0798 105.167 33.0318 105.247 32.9358C105.343 32.8558 105.391 32.7598 105.391 32.6478V30.7278H97.3272C96.7512 30.7278 96.2152 30.5838 95.7192 30.2958C95.2392 29.9918 94.8472 29.5998 94.5432 29.1198C94.2552 28.6398 94.1112 28.1038 94.1112 27.5118V16.8558H96.9672V27.4158C96.9672 27.5438 97.0072 27.6558 97.0872 27.7518C97.1832 27.8318 97.2952 27.8718 97.4232 27.8718H104.959C105.071 27.8718 105.167 27.8318 105.247 27.7518C105.343 27.6558 105.391 27.5438 105.391 27.4158V16.8558H108.247V32.7438C108.247 33.3518 108.103 33.8958 107.815 34.3758C107.543 34.8558 107.159 35.2398 106.663 35.5278C106.183 35.8158 105.647 35.9598 105.055 35.9598H96.4872Z" fill="white"/>
<mask id="mask0_7_86" style="mask-type:alpha" maskUnits="userSpaceOnUse" x="0" y="0" width="44" height="44">
<rect x="0.240692" y="0.25473" width="42.946" height="42.946" fill="#D9D9D9"/>
</mask>
<g mask="url(#mask0_7_86)">
<path d="M20.9188 31.5351C18.3656 31.3171 16.2194 30.2767 14.4804 28.4139C12.7414 26.5511 11.8719 24.3224 11.8719 21.7277C11.8719 18.9938 12.8288 16.6701 14.7426 14.7566C16.6561 12.8428 18.9798 11.8859 21.7137 11.8859C24.3084 11.8859 26.5371 12.7526 28.3999 14.486C30.2626 16.219 31.303 18.3623 31.521 20.9158L28.6754 20.0725C28.2886 18.462 27.4555 17.1424 26.1761 16.1134C24.8969 15.0845 23.4095 14.5701 21.7137 14.5701C19.7453 14.5701 18.0603 15.2709 16.6586 16.6726C15.2569 18.0743 14.556 19.7594 14.556 21.7277C14.556 23.4277 15.0733 24.9189 16.1079 26.2013C17.1425 27.4837 18.4593 28.3188 20.0585 28.7065L20.9188 31.5351ZM23.0661 38.6547C22.8406 38.703 22.6153 38.7272 22.3901 38.7272H21.7137C19.3621 38.7272 17.1522 38.281 15.0839 37.3887C13.0156 36.4964 11.2165 35.2854 9.68658 33.7558C8.15662 32.2261 6.94549 30.4273 6.05316 28.3593C5.16054 26.2913 4.71423 24.0819 4.71423 21.7309C4.71423 19.3796 5.16039 17.1695 6.05272 15.1006C6.94504 13.0318 8.15603 11.2322 9.68568 9.70196C11.2153 8.17171 13.0141 6.96012 15.0821 6.0672C17.1501 5.17458 19.3596 4.72827 21.7106 4.72827C24.0619 4.72827 26.2719 5.17458 28.3408 6.0672C30.4097 6.95953 32.2092 8.17066 33.7395 9.70062C35.2697 11.2306 36.4813 13.0297 37.3742 15.0979C38.2669 17.1662 38.7132 19.3761 38.7132 21.7277V22.3952C38.7132 22.6177 38.689 22.8403 38.6407 23.0631L36.029 22.2646V21.7277C36.029 17.7314 34.6422 14.3464 31.8686 11.5728C29.095 8.7992 25.7101 7.4124 21.7137 7.4124C17.7173 7.4124 14.3324 8.7992 11.5588 11.5728C8.78516 14.3464 7.39836 17.7314 7.39836 21.7277C7.39836 25.7241 8.78516 29.1091 11.5588 31.8827C14.3324 34.6563 17.7173 36.0431 21.7137 36.0431H22.2505L23.0661 38.6547ZM36.28 38.9853L28.1659 30.8538L26.2217 36.7311L21.7137 21.7277L36.7171 26.2357L30.8397 28.1799L38.9713 36.294L36.28 38.9853Z" fill="white"/>
</g>
</svg>
